<mxfile host="app.diagrams.net" modified="2022-04-26T13:47:13.830Z" agent="5.0 (Windows NT 10.0; Win64; x64) AppleWebKit/537.36 (KHTML, like Gecko) Chrome/100.0.4896.127 Safari/537.36 Edg/100.0.1185.50" etag="0TRd6ibB4f1CvqpIHGvO" version="17.4.6" type="github">
  <diagram id="msgPDT9wuF9cYYFa8DwD" name="Page-1">
    <mxGraphModel dx="1038" dy="579" grid="1" gridSize="10" guides="1" tooltips="1" connect="1" arrows="1" fold="1" page="1" pageScale="1" pageWidth="850" pageHeight="1100" math="0" shadow="0">
      <root>
        <mxCell id="0" />
        <mxCell id="1" parent="0" />
        <mxCell id="wws-xP4vF0J0FcufNPpX-1" value="" style="edgeStyle=orthogonalEdgeStyle;rounded=0;orthogonalLoop=1;jettySize=auto;html=1;" edge="1" parent="1" source="wws-xP4vF0J0FcufNPpX-2">
          <mxGeometry relative="1" as="geometry">
            <mxPoint x="395" y="90" as="targetPoint" />
          </mxGeometry>
        </mxCell>
        <mxCell id="wws-xP4vF0J0FcufNPpX-2" value="start" style="rounded=1;whiteSpace=wrap;html=1;" vertex="1" parent="1">
          <mxGeometry x="340" y="10" width="110" height="40" as="geometry" />
        </mxCell>
        <mxCell id="wws-xP4vF0J0FcufNPpX-5" value="callback" style="edgeStyle=orthogonalEdgeStyle;rounded=0;orthogonalLoop=1;jettySize=auto;html=1;" edge="1" parent="1" source="wws-xP4vF0J0FcufNPpX-7" target="wws-xP4vF0J0FcufNPpX-9">
          <mxGeometry relative="1" as="geometry" />
        </mxCell>
        <mxCell id="wws-xP4vF0J0FcufNPpX-6" value="" style="edgeStyle=orthogonalEdgeStyle;rounded=0;orthogonalLoop=1;jettySize=auto;html=1;" edge="1" parent="1" source="wws-xP4vF0J0FcufNPpX-7" target="wws-xP4vF0J0FcufNPpX-13">
          <mxGeometry relative="1" as="geometry" />
        </mxCell>
        <mxCell id="wws-xP4vF0J0FcufNPpX-7" value="call data server for get the npc info" style="whiteSpace=wrap;html=1;rounded=1;" vertex="1" parent="1">
          <mxGeometry x="335" y="90" width="120" height="60" as="geometry" />
        </mxCell>
        <mxCell id="wws-xP4vF0J0FcufNPpX-8" value="" style="edgeStyle=orthogonalEdgeStyle;rounded=0;orthogonalLoop=1;jettySize=auto;html=1;" edge="1" parent="1" source="wws-xP4vF0J0FcufNPpX-9" target="wws-xP4vF0J0FcufNPpX-11">
          <mxGeometry relative="1" as="geometry" />
        </mxCell>
        <mxCell id="wws-xP4vF0J0FcufNPpX-9" value="construct the npc creation object" style="whiteSpace=wrap;html=1;rounded=1;" vertex="1" parent="1">
          <mxGeometry x="530" y="160" width="120" height="60" as="geometry" />
        </mxCell>
        <mxCell id="wws-xP4vF0J0FcufNPpX-10" value="" style="edgeStyle=orthogonalEdgeStyle;rounded=0;orthogonalLoop=1;jettySize=auto;html=1;" edge="1" parent="1" source="wws-xP4vF0J0FcufNPpX-11" target="wws-xP4vF0J0FcufNPpX-12">
          <mxGeometry relative="1" as="geometry" />
        </mxCell>
        <mxCell id="wws-xP4vF0J0FcufNPpX-11" value="create the npc agent&amp;nbsp;" style="whiteSpace=wrap;html=1;rounded=1;" vertex="1" parent="1">
          <mxGeometry x="530" y="260" width="120" height="60" as="geometry" />
        </mxCell>
        <mxCell id="wws-xP4vF0J0FcufNPpX-12" value="add data in add agent schema" style="whiteSpace=wrap;html=1;rounded=1;" vertex="1" parent="1">
          <mxGeometry x="530" y="380" width="120" height="60" as="geometry" />
        </mxCell>
        <mxCell id="wws-xP4vF0J0FcufNPpX-13" value="end" style="ellipse;whiteSpace=wrap;html=1;rounded=1;" vertex="1" parent="1">
          <mxGeometry x="337.5" y="250" width="115" height="40" as="geometry" />
        </mxCell>
      </root>
    </mxGraphModel>
  </diagram>
</mxfile>
